<?xml version="1.0" encoding="UTF-8" standalone="no"?>
<!DOCTYPE svg PUBLIC "-//W3C//DTD SVG 1.1//EN" "http://www.w3.org/Graphics/SVG/1.1/DTD/svg11.dtd">
<svg version="1.1" xmlns="http://www.w3.org/2000/svg" xmlns:xlink="http://www.w3.org/1999/xlink" preserveAspectRatio="xMidYMid meet" viewBox="0 0 28 28" width="28" height="28"><defs><path d="M16.78 14.53L17.04 15.83L17.76 16.89L18.81 17.61L20.11 17.87L20.99 17.69L20.97 17.74L20.29 18.83L19.46 19.81L19.2 20.03L19.21 19.96L19.01 18.98L18.48 18.18L17.68 17.65L16.71 17.45L15.74 17.65L14.94 18.18L14.41 18.98L14.21 19.96L14.41 20.93L14.94 21.73L15.38 22.03L14.91 22.14L13.56 22.25L12.21 22.14L10.93 21.82L9.73 21.32L8.64 20.64L7.67 19.81L6.83 18.83L6.15 17.74L5.65 16.54L5.33 15.26L5.22 13.91L5.33 12.56L5.65 11.27L6.15 10.08L6.83 8.98L7.67 8.01L8.64 7.18L9.73 6.5L10.93 5.99L12.21 5.68L13.56 5.57L14.91 5.68L16.2 5.99L16.78 6.24L16.07 6.39L15.27 6.92L14.73 7.72L14.53 8.69L14.73 9.67L15.27 10.47L16.07 11L17.04 11.2L18.01 11L18.81 10.47L19.34 9.67L19.54 8.69L19.39 7.95L19.46 8.01L20.29 8.98L20.97 10.08L21.48 11.27L21.54 11.55L21.41 11.46L20.11 11.2L18.81 11.46L17.76 12.18L17.04 13.23L16.78 14.53Z" id="a1gW5ZPgxR"></path><path d="M16.83 2.23C17.75 2.23 18.49 2.98 18.49 3.9C18.49 4.82 17.75 5.57 16.83 5.57C15.9 5.57 15.16 4.82 15.16 3.9C15.16 2.98 15.9 2.23 16.83 2.23Z" id="a4q7Vie8L0"></path><path d="M15.84 22.82C16.76 22.82 17.51 23.56 17.51 24.49C17.51 25.41 16.76 26.15 15.84 26.15C14.92 26.15 14.17 25.41 14.17 24.49C14.17 23.56 14.92 22.82 15.84 22.82Z" id="bwwoJf8Tx"></path><path d="M18.08 25.55C18.54 25.55 18.91 25.92 18.91 26.38C18.91 26.84 18.54 27.21 18.08 27.21C17.62 27.21 17.24 26.84 17.24 26.38C17.24 25.92 17.62 25.55 18.08 25.55Z" id="d1KQYcL1j"></path><path d="M18.91 0.88C19.37 0.88 19.74 1.25 19.74 1.71C19.74 2.17 19.37 2.54 18.91 2.54C18.45 2.54 18.08 2.17 18.08 1.71C18.08 1.25 18.45 0.88 18.91 0.88Z" id="h3FHQsl12D"></path></defs><g><g><g><use xlink:href="#a1gW5ZPgxR" opacity="1" fill="#0e7c8d" fill-opacity="1"></use><g><use xlink:href="#a1gW5ZPgxR" opacity="1" fill-opacity="0" stroke="#000000" stroke-width="1" stroke-opacity="0"></use></g></g><g><use xlink:href="#a4q7Vie8L0" opacity="1" fill="#0e7c8d" fill-opacity="1"></use><g><use xlink:href="#a4q7Vie8L0" opacity="1" fill-opacity="0" stroke="#000000" stroke-width="1" stroke-opacity="0"></use></g></g><g><use xlink:href="#bwwoJf8Tx" opacity="1" fill="#0e7c8d" fill-opacity="1"></use><g><use xlink:href="#bwwoJf8Tx" opacity="1" fill-opacity="0" stroke="#000000" stroke-width="1" stroke-opacity="0"></use></g></g><g><use xlink:href="#d1KQYcL1j" opacity="1" fill="#0e7c8d" fill-opacity="1"></use><g><use xlink:href="#d1KQYcL1j" opacity="1" fill-opacity="0" stroke="#000000" stroke-width="1" stroke-opacity="0"></use></g></g><g><use xlink:href="#h3FHQsl12D" opacity="1" fill="#0e7c8d" fill-opacity="1"></use><g><use xlink:href="#h3FHQsl12D" opacity="1" fill-opacity="0" stroke="#000000" stroke-width="1" stroke-opacity="0"></use></g></g></g></g></svg>